# xmcd
#
# Track frame offsets: 
#        183
#        27103
#        43983
#
# Disc length: 873 seconds
#
# Revision: 3
# Processed by: cddbd v1.5.2PL0 Copyright (c) Steve Scherf et al.
# Submitted via: ExactAudioCopy v1.0b3
#
DISCID=1f036703
DTITLE=Marillion - Easter (Single)
DYEAR=1990
DGENRE=Rock
TTITLE0=Easter
TTITLE1=The Release
TTITLE2=Uninvited Guest (Live)
EXTD=
EXTT0=
EXTT1=
EXTT2=
PLAYORDER=
